# xmcd
#
# Track frame offsets: 
#        150
#        15500
#        34152
#        50112
#        64830
#        80412
#        94970
#        113670
#        131102
#        147567
#        165062
#        180702
#        198575
#        215357
#        246407
#        270000
#        311815
#
# Disc length: 4440 seconds
#
# Revision: 1
# Processed by: cddbd v1.5.2PL0 Copyright (c) Steve Scherf et al.
# Submitted via: ExactAudioCopy v0.95b4
#
DISCID=f2115611
DTITLE=E-ROTIC - Cocktail E-ROTIC
DYEAR=2003
DGENRE=Dance
TTITLE0=Lemmings on the Run
TTITLE1=I Feel Your Heartbeat
TTITLE2=Rave Me Dave
TTITLE3=I'm Over You
TTITLE4=Cocktail D'Erotique
TTITLE5=Kiss My Lips
TTITLE6=Latin Lover
TTITLE7=Heartbreaker
TTITLE8=Gimme Your Jimmy
TTITLE9=Don't You See the Light
TTITLE10=Dangerous Kiss
TTITLE11=Is That the Way You Are?
TTITLE12=Bolero
TTITLE13=Lemmings on the Run (Extended Version)
TTITLE14=I'm Over You (Extended Version)
TTITLE15=Gimme Your Jimmy (Extended Version)
TTITLE16=data
EXTD=
EXTT0=
EXTT1=
EXTT2=
EXTT3=
EXTT4=
EXTT5=
EXTT6=
EXTT7=
EXTT8=
EXTT9=
EXTT10=
EXTT11=
EXTT12=
EXTT13=
EXTT14=
EXTT15=
EXTT16=
PLAYORDER=
